:SAMPLES-PER-SECOND 30
:FULLY-SPECIFIED
:DEGREES
1
root  -1.60452 40.1725 2.02285 -165.167 -89.8018 163.199
RightUpLeg  -1.21124 -7.72551 -4.69234
RightLeg  3.32586 6.93862 -0.165653
RightFoot  -0.576498 -0.262224 2.74029
RightToes  2.96859e-009 0 -3.6325e-017
Spine  5.59118 0.363152 0.996032
Spine1  0.43406 0.708652 -1.70627
HEad  -1.37712 2.27651 -2.06801
LeftShoulder1  0.128884 1.8102 0.950842
LeftArm  -19.8301 3.35962 -11.8601
LeftForeArm  3.99174 0.631719 1.57155
LeftHand  -0.0333756 2.91188 0.906789
RightShoulder  0.0723307 -2.22482 -3.09019
RightArm  -7.01503 -2.19606 6.73915
RightForeArm  -1.62898 1.16267 -2.0572
RightHand  -0.0794024 2.85297 -1.34331
LeftUpLeg  -2.97085 6.58837 2.75536
LeftLeg  5.73059 -2.96424 -0.296735
LeftFoot  -0.969375 -0.172177 1.97347
LeftToes  3.24686e-010 -7.02549e-012 1.39809e-011
2
root  -1.60373 40.1725 2.01923 -170.237 -89.7903 168.244
RightUpLeg  -1.17695 -7.70804 -4.66411
RightLeg  3.30835 6.91506 -0.17777
RightFoot  -0.569253 -0.264568 2.77666
RightToes  2.96859e-009 0 -3.6325e-017
Spine  5.5698 0.356974 0.99408
Spine1  0.479324 0.707087 -1.73444
HEad  -1.30494 2.14723 -2.0346
LeftShoulder1  0.128884 1.79657 0.913079
LeftArm  -19.8581 3.37012 -11.7994
LeftForeArm  4.07891 0.588874 1.58562
LeftHand  -0.0341899 2.92715 0.732872
RightShoulder  0.0723081 -2.31081 -3.04214
RightArm  -6.94544 -2.09376 6.71921
RightForeArm  -1.78625 1.18317 -2.00535
RightHand  -0.079295 2.86826 -1.43671
LeftUpLeg  -2.97593 6.60027 2.77577
LeftLeg  5.81178 -2.96754 -0.288722
LeftFoot  -0.999758 -0.170588 1.94877
LeftToes  3.24686e-010 -7.02549e-012 1.39809e-011
3
root  -1.60112 40.1725 2.0144 -174.509 -89.7853 172.519
RightUpLeg  -1.21478 -7.67675 -4.62305
RightLeg  3.36082 6.92508 -0.185648
RightFoot  -0.500959 -0.255078 2.62942
RightToes  2.96859e-009 0 -3.6325e-017
Spine  5.64908 0.344628 0.969073
Spine1  0.325365 0.687991 -1.71114
HEad  -1.24643 1.97506 -2.15088
LeftShoulder1  0.128884 1.83956 0.798587
LeftArm  -19.7286 3.27644 -11.6427
LeftForeArm  4.13289 0.609524 1.49967
LeftHand  -0.0334899 2.78559 0.603778
RightShoulder  0.0736668 -2.2495 -3.04795
RightArm  -7.08341 -2.1987 6.71541
RightForeArm  -1.70967 1.19252 -2.07111
RightHand  -0.0807045 3.00266 -1.3843
LeftUpLeg  -2.96816 6.6346 2.81387
LeftLeg  5.79001 -2.97928 -0.3176
LeftFoot  -0.98744 -0.170118 1.94146
LeftToes  3.24686e-010 -7.02549e-012 1.39809e-011
4
root  -1.59984 40.1725 2.01255 -178.689 -89.7916 176.72
RightUpLeg  -1.25014 -7.6582 -4.59916
RightLeg  3.38315 6.88488 -0.18714
RightFoot  -0.552118 -0.256666 2.65406
RightToes  2.96859e-009 0 -3.6325e-017
Spine  5.65175 0.33647 0.937554
Spine1  0.198274 0.66673 -1.65893
HEad  -1.25567 1.96882 -2.01632
LeftShoulder1  0.128884 1.80634 0.713039
LeftArm  -19.646 3.25351 -11.5228
LeftForeArm  4.0031 0.677024 1.45655
LeftHand  -0.0331172 2.78113 0.703133
RightShoulder  0.0784214 -2.17147 -3.05073
RightArm  -6.96924 -2.30337 6.64724
RightForeArm  -1.71151 1.23992 -2.03992
RightHand  -0.0805638 2.94526 -1.34259
LeftUpLeg  -3.03449 6.63575 2.83423
LeftLeg  5.85502 -3.02014 -0.319788
LeftFoot  -1.03267 -0.169705 1.93504
LeftToes  3.24686e-010 -7.02549e-012 1.39809e-011
5
root  -1.59753 40.1733 2.00544 -176.147 -89.7526 174.197
RightUpLeg  -1.26352 -7.62339 -4.58798
RightLeg  3.3426 6.86673 -0.221738
RightFoot  -0.57235 -0.263339 2.75759
RightToes  2.96859e-009 0 -3.6325e-017
Spine  5.66605 0.36287 0.907458
Spine1  0.0888685 0.696958 -1.68882
HEad  -1.21225 1.8604 -1.91502
LeftShoulder1  0.128884 1.81989 0.73352
LeftArm  -19.6471 3.19118 -11.5491
LeftForeArm  3.96276 0.679634 1.44924
LeftHand  -0.0293455 2.62793 0.701073
RightShoulder  0.0824091 -2.16123 -3.06079
RightArm  -6.88147 -2.46987 6.62655
RightForeArm  -1.63257 1.37931 -2.02389
RightHand  -0.0775718 2.90924 -1.30738
LeftUpLeg  -3.03576 6.63246 2.82512
LeftLeg  5.81653 -2.95451 -0.310789
LeftFoot  -0.998447 -0.172212 1.97402
LeftToes  3.24686e-010 -7.02549e-012 1.39809e-011
6
root  -1.59601 40.1754 2.00318 -177.981 -89.7277 175.997
RightUpLeg  -1.27135 -7.62454 -4.57669
RightLeg  3.41317 6.90351 -0.209434
RightFoot  -0.563799 -0.257197 2.66229
RightToes  2.96859e-009 0 -3.6325e-017
Spine  5.65678 0.3569 0.897209
Spine1  0.0676144 0.6904 -1.68864
HEad  -1.20893 1.91171 -1.88072
LeftShoulder1  0.128884 1.72288 0.801374
LeftArm  -19.6205 3.324 -11.5619
LeftForeArm  4.19459 0.708774 1.47118
LeftHand  -0.0215014 2.30575 0.342956
RightShoulder  0.0848672 -2.13291 -3.02245
RightArm  -6.8872 -2.40834 6.58246
RightForeArm  -1.61441 1.25716 -2.03637
RightHand  -0.0635463 2.83984 -1.11556
LeftUpLeg  -2.99176 6.62663 2.83362
LeftLeg  5.80943 -2.94149 -0.287604
LeftFoot  -0.997752 -0.173147 1.98855
LeftToes  3.24686e-010 -7.02549e-012 1.39809e-011
7
root  -1.5942 40.1735 2.00056 -177.481 -89.7195 175.489
RightUpLeg  -1.25785 -7.61632 -4.56344
RightLeg  3.3968 6.86906 -0.23134
RightFoot  -0.573216 -0.257959 2.67411
RightToes  2.96859e-009 0 -3.6325e-017
Spine  5.53775 0.354163 0.870418
Spine1  0.208616 0.681231 -1.64573
HEad  -1.37348 1.93946 -1.97164
LeftShoulder1  0.128884 1.71376 0.742692
LeftArm  -19.6119 3.31982 -11.5385
LeftForeArm  4.22302 0.667207 1.45678
LeftHand  -0.022154 2.38637 0.359111
RightShoulder  0.0831806 -2.07315 -3.07471
RightArm  -6.7613 -2.47225 6.55389
RightForeArm  -1.61316 1.18898 -2.01413
RightHand  -0.0539397 2.8279 -0.980352
LeftUpLeg  -2.97672 6.6259 2.84232
LeftLeg  5.80591 -2.9613 -0.287182
LeftFoot  -1.02187 -0.16798 1.90821
LeftToes  3.24686e-010 -7.02549e-012 1.39809e-011
8
root  -1.58598 40.1701 1.99917 179.318 -89.6652 178.639
RightUpLeg  -1.22814 -7.60862 -4.55749
RightLeg  3.41649 6.90354 -0.217703
RightFoot  -0.619073 -0.267112 2.81613
RightToes  2.96859e-009 0 -3.6325e-017
Spine  5.63974 0.364699 0.921812
Spine1  0.16241 0.702497 -1.69879
HEad  -1.45953 1.81577 -2.08063
LeftShoulder1  0.128884 1.80847 0.71087
LeftArm  -19.7032 3.18879 -11.591
LeftForeArm  4.28241 0.693283 1.4975
LeftHand  -0.0143943 2.65306 0.00641362
RightShoulder  0.0746978 -2.22202 -3.09573
RightArm  -6.72857 -2.38055 6.59309
RightForeArm  -1.60587 1.2265 -1.97969
RightHand  -0.0509342 2.76971 -0.940263
LeftUpLeg  -2.9604 6.64338 2.85899
LeftLeg  5.86332 -2.87394 -0.279445
LeftFoot  -1.02212 -0.17307 1.98736
LeftToes  3.24686e-010 -7.02549e-012 1.39809e-011
9
root  -1.57812 40.1689 1.99881 174.219 -89.571 -176.3
RightUpLeg  -1.18357 -7.57882 -4.52025
RightLeg  3.34412 6.99059 -0.217122
RightFoot  -0.549991 -0.26053 2.714
RightToes  2.96859e-009 0 -3.6325e-017
Spine  5.66829 0.386008 1.03754
Spine1  0.176354 0.750979 -1.8347
HEad  -1.47957 1.76032 -1.95005
LeftShoulder1  0.130507 1.82641 0.817889
LeftArm  -19.7521 3.16222 -11.7316
LeftForeArm  4.07302 0.728964 1.52002
LeftHand  -0.0200131 3.16707 0.149002
RightShoulder  0.0676822 -2.33787 -2.91544
RightArm  -6.7102 -2.15792 6.45691
RightForeArm  -1.75829 1.14861 -1.9428
RightHand  -0.0536742 2.70086 -0.981702
LeftUpLeg  -2.92333 6.68133 2.89963
LeftLeg  5.88007 -2.80864 -0.270455
LeftFoot  -1.07656 -0.169623 1.93376
LeftToes  3.24686e-010 -7.02549e-012 1.39809e-011
10
root  -1.57351 40.1715 2.0006 177.139 -89.4735 -179.236
RightUpLeg  -1.21052 -7.5853 -4.52637
RightLeg  3.3839 7.11201 -0.217008
RightFoot  -0.528429 -0.259765 2.70214
RightToes  2.96859e-009 0 -3.6325e-017
Spine  5.65885 0.4239 1.05319
Spine1  0.132649 0.80383 -1.90253
HEad  -1.37426 1.73014 -1.86921
LeftShoulder1  0.132926 1.76325 0.931923
LeftArm  -19.7683 3.19392 -11.7935
LeftForeArm  4.09202 0.798438 1.54288
LeftHand  -0.0229918 3.26566 0.293395
RightShoulder  0.063666 -2.22736 -2.83329
RightArm  -6.58557 -2.23084 6.35012
RightForeArm  -1.75015 1.05709 -1.9269
RightHand  -0.0499027 2.93972 -0.921022
LeftUpLeg  -2.88374 6.68256 2.89445
LeftLeg  5.86098 -2.71528 -0.271733
LeftFoot  -1.09009 -0.164662 1.85662
LeftToes  3.24686e-010 -7.02549e-012 1.39809e-011
11
root  -1.56669 40.1738 2.00364 179.087 -89.2985 178.804
RightUpLeg  -1.26335 -7.59203 -4.53806
RightLeg  3.43534 7.31918 -0.20087
RightFoot  -0.462177 -0.253117 2.59899
RightToes  2.96859e-009 0 -3.6325e-017
Spine  5.72067 0.437251 1.02434
Spine1  0.0426586 0.812031 -1.88345
HEad  -1.40562 1.81602 -1.66946
LeftShoulder1  0.122087 1.90923 0.904961
LeftArm  -19.7977 3.24541 -11.7878
LeftForeArm  4.30253 0.719498 1.56105
LeftHand  -0.0183524 3.03683 0.110943
RightShoulder  0.0598532 -2.27132 -2.98123
RightArm  -6.72527 -1.99966 6.55065
RightForeArm  -1.63053 0.864384 -1.96503
RightHand  -0.0330159 3.16722 -0.682267
LeftUpLeg  -2.82209 6.70015 2.88658
LeftLeg  5.8045 -2.55287 -0.27073
LeftFoot  -1.05667 -0.168102 1.91011
LeftToes  3.24686e-010 -7.02549e-012 1.39809e-011
